<mxfile host="app.diagrams.net" modified="2023-05-15T12:39:13.646Z" agent="Mozilla/5.0 (Windows NT 10.0; Win64; x64) AppleWebKit/537.36 (KHTML, like Gecko) Chrome/113.0.0.0 Safari/537.36" version="21.3.1" etag="NJM6Mu82IVgamRP5LuoR" type="github">
  <diagram name="PÃ¡gina-1" id="maqbI4RKwShfdbhXBFWI">
    <mxGraphModel>
      <root>
        <mxCell id="0" />
        <mxCell id="1" parent="0" />
      </root>
    </mxGraphModel>
  </diagram>
</mxfile>
